<svg width="500" height="500" viewBox="0 0 500 500" fill="none" xmlns="http://www.w3.org/2000/svg">
<path d="M13.3268 333.41C9.46801 322.53 6.30855 311.32 3.97645 299.807C74.6392 219.477 151.289 192.097 196.534 207.689C200.991 208.293 221.183 215.511 224.17 217.218C244.412 224.854 263.836 234.184 284.268 236.357C343.531 245.849 404.344 181.2 388.455 41.9928C394.37 45.9359 400.082 50.1502 405.627 54.568C411.709 165.919 374.018 232.043 325.46 253.301C286.12 269.619 250.181 250.981 217.043 235.754C212.942 233.655 203.544 230.078 198.951 228.809C154.561 210.412 78.9567 243.08 13.3268 333.41ZM51.6869 165.303C37.2351 171.73 22.1203 179.54 6.60049 188.718C3.37237 201.499 1.17009 214.68 0 228.158C106.689 153.868 186.005 159.026 232.152 184.336C252.041 193.504 270.325 203.458 288.61 206.888C338.29 219.377 389.208 163.691 374.966 33.6537C338.062 12.2905 295.229 0 249.495 0C153.542 0 70.2283 53.8632 28.1531 132.924C118.302 109.123 179.644 120.462 222.735 141.4C236.759 148.592 248.674 157.062 259.29 165.484C247.641 159.527 235.177 153.56 221.211 148.993C180.903 136.288 124.219 133.973 51.6869 165.303ZM500 250C500 231.125 497.835 212.765 493.863 195.087C483.029 239.594 453.363 288.531 415.425 319.102C360.241 367.784 287.211 376.732 244.75 363.136C276.895 350.905 328.26 340.424 370.329 304.675C412.69 270.852 445.757 211.762 448.009 146.765C449.072 131.478 449.048 115.257 447.774 97.2978C442.314 90.2462 436.482 83.5027 430.312 77.0785C438.994 179.835 409.369 248.418 354.245 293.72C299.205 336.015 241.21 326.325 198.173 328.685C194.006 328.676 185.811 329.744 181.92 331.205C152.492 338.988 121.017 381.224 116.329 461.714C154.913 485.937 200.547 500 249.495 500C387.845 500 500 388.071 500 250ZM100.072 339.392C102.021 336.077 103.987 332.855 105.966 329.727C112.168 321.235 118.922 312.642 125.296 306.023C129.729 301.573 141.626 291.986 145.872 289.384C150.553 286.542 162.172 281.353 166.965 279.971C176.359 277.32 185.642 276.872 195.083 276.895C186.351 274.074 177.472 271.463 167.949 270.993C163.067 270.806 150.701 272.063 145.491 273.439C140.666 274.63 126.467 280.712 121.065 283.881C112.981 288.726 103.616 295.992 95.0667 303.283C74.9583 321.721 54.3941 349.028 36.1804 381.071C45.2659 395.767 55.8555 409.425 67.6972 421.894C75.4412 389.457 86.8484 361.359 100.072 339.392Z" fill="white"/>
</svg>
